PathFileType	4	(X/Y/Z)	56_2_100_p1_0-212.trc
DataRate	CameraRate	NumFrames	NumMarkers	Units	OrigDataRate	OrigDataStartFrame	OrigNumFrames
52.0	52.0	6	27	m	52.0	186	213
Frame#	Time	RHip			RKnee			RAnkle			RBigToe			RSmallToe			RHeel			LHip			LKnee			LAnkle			LBigToe			LSmallToe			LHeel			Neck			Head			Nose			RShoulder			RElbow			RWrist			RThumb			RIndex			RPinky			LShoulder			LElbow			LWrist			LThumb			LIndex			LPinky			
		X1	Y1	Z1	X2	Y2	Z2	X3	Y3	Z3	X4	Y4	Z4	X5	Y5	Z5	X6	Y6	Z6	X7	Y7	Z7	X8	Y8	Z8	X9	Y9	Z9	X10	Y10	Z10	X11	Y11	Z11	X12	Y12	Z12	X13	Y13	Z13	X14	Y14	Z14	X15	Y15	Z15	X16	Y16	Z16	X17	Y17	Z17	X18	Y18	Z18	X19	Y19	Z19	X20	Y20	Z20	X21	Y21	Z21	X22	Y22	Z22	X23	Y23	Z23	X24	Y24	Z24	X25	Y25	Z25	X26	Y26	Z26	X27	Y27	Z27	
186	3.576923076923077	0.4875070016316971	0.7419188248720548	0.3089603606183101	0.5047188303832447	0.8764948546917368	0.6685127303912966	0.5251390612611784	1.0627541834029244	1.0504925706805113	0.4263363302767479	0.8965261718078269	1.1493910030953145	0.5005707559553527	0.874632710352492	1.1474308066561079	0.5249990039840992	1.1813917380923313	1.1008539021918449	0.2825736793817868	0.8197087249116878	0.29599932341715307	0.31341856247479793	0.9453594860384151	0.659523819805435	0.3330609653427054	1.101926835868131	1.0053367225036616	0.2649978928256445	0.9139924242580457	1.1159877958328979	0.23165008319870287	0.9989320569942258	1.112322955494115	0.37243296924768476	1.180128529958067	1.0577338022851543	0.3540375575139444	0.5637088766695257	-0.22361089631206846	0.330205806365146	0.4050827498801171	-0.435688480559202	0.30812202118757925	0.3955858914353986	-0.285057962806224	0.5165888979890476	0.5307715417763571	-0.14333037499685192	0.5720476283646012	0.5149720654498895	0.11712691186283793	0.38414104934735593	0.5252571239088372	0.24887893423981672	0.2959038128771558	0.5288131012191761	0.2533407916714174	0.2877173554532985	0.5594590669849651	0.3049691785194795	0.2876168590301832	0.5708627877152461	0.33811113073725385	0.20077348141260404	0.6043283861382687	-0.1709521064178793	0.1276714025053287	0.7388766160496487	0.06369770068658259	0.2785163118394109	0.6109207936904499	0.2154147157688271	0.3593569527388471	0.5168437586498033	0.22916587164583133	0.36667954212721166	0.5232798855916321	0.26391869083601455	0.3195815304747241	0.5618860436008902	0.32671444855931836
187	3.5961538461538463	0.4868887815418093	0.7455890729580551	0.3161968561656374	0.5043698588807476	0.8788363691492271	0.672774850798981	0.5268259742077982	1.065894231828856	1.055897015885299	0.4184289292399388	0.8840401527090475	1.14563587936702	0.5004876776231013	0.8744575589260251	1.1473955002044727	0.5257101048594424	1.179216970429054	1.095874939219933	0.2833097834516574	0.8243166499458543	0.3045338491364001	0.3136331293979526	0.945748927076979	0.6555371856405647	0.3331443753247669	1.1021729201657706	1.0053112336054228	0.2643771719051145	0.916357942732057	1.1200813812836978	0.23098123860075245	1.0016221222120183	1.1165565649412112	0.3710831155780445	1.178270549931911	1.0489714782249233	0.3540282119608098	0.5638013615890455	-0.22364538689422306	0.3302382677757848	0.4052520701226936	-0.4357446408754378	0.3082382051989651	0.39569973705091127	-0.28507744925724887	0.5090303733444883	0.521015438029333	-0.14152238588077232	0.5720812947298509	0.515345324617516	0.11709474908956435	0.3825574988180334	0.5094576537098383	0.25455707218558205	0.30199836626219567	0.5392677257430725	0.24612337648267651	0.2833766140240045	0.5588553783157478	0.30789680324861146	0.28687947181953616	0.5700709341904904	0.3421227494412558	0.20084870629376683	0.6042457884363996	-0.1709955733448516	0.12182527756280805	0.7292385991777466	0.067645278041539	0.27151813569771843	0.6151012398063419	0.21546229517862245	0.3527529888959012	0.5184838570829445	0.22630822179984283	0.36717214989761604	0.5369382965909615	0.2680574269554679	0.3197673079585602	0.5600350832534686	0.3271869515643236
188	3.6153846153846154	0.48650320019573845	0.7467643450357283	0.3245639569048817	0.5043991873676806	0.8788055705201971	0.6729480167378166	0.5251878090645528	1.0628329933259655	1.050564938472201	0.41852163934337566	0.884093473937643	1.1457495723668327	0.5005775507406236	0.8746182873293585	1.1475196665298018	0.525011583583676	1.1816760683184073	1.1009804687601856	0.28279781013987465	0.8251517549267791	0.312251113776321	0.3135645711702437	0.9452523673767714	0.6596550931152724	0.333077387132542	1.1020495975721143	1.005402145026101	0.26447517800710085	0.916492421168063	1.120056744516424	0.23172587201515818	0.9990102061622483	1.1123355393793686	0.37091565371771223	1.177345959696479	1.0533033749716763	0.35396785410294573	0.5637271846800049	-0.22373497867406322	0.33703429988952666	0.41411830935701965	-0.44203340830600085	0.30760509816544124	0.3939318656579766	-0.287966338060072	0.5090019214672241	0.5210146304300451	-0.14149225746116398	0.5723296268257093	0.5161030099674955	0.11717810729619701	0.39574683323318893	0.5361909807582965	0.2584465776424847	0.3029572147814086	0.5438479862006189	0.24989515453891517	0.28718016249955275	0.56081180751335	0.3127945875153546	0.2870610193936323	0.5706183823020824	0.34227036184782567	0.20082951388793835	0.6043068860987216	-0.17101781628014426	0.11410117580471593	0.7132529472236921	0.06197703210190002	0.26350250758726323	0.6050885139318929	0.22724986056425772	0.3338133067745126	0.5149122342363598	0.2314529363554428	0.35401127825183937	0.5327002851458992	0.27018581156286997	0.3272835096169627	0.5737089887669217	0.33116153405288223
189	3.6346153846153846	0.48611668042847017	0.7489035108978997	0.3329766400129171	0.5043749028544068	0.8789545696545067	0.6732287546311762	0.5266728367544559	1.0653619247359525	1.06016022862048	0.4185342333553813	0.8840268581830125	1.1457631496617584	0.5006015311952903	0.8746196564786273	1.1475731101809112	0.5270016960729034	1.1856685991677918	1.1069091490394656	0.27873280850509113	0.82530672773502	0.3083052873715542	0.31344976341108993	0.9452804701088975	0.6596351700105902	0.3331019736171696	1.102039251190698	1.0053926394538117	0.26424507274558506	0.9160009290806403	1.120043995856147	0.2316796295584781	0.9988345234521111	1.1122684533002425	0.3723391391498361	1.180158223414356	1.0585495156083036	0.3539913958395367	0.5638017037036003	-0.2237879564641547	0.3370627728144051	0.414522041007773	-0.4385298602942271	0.3140724910127302	0.4027758047741392	-0.2900494642917309	0.5090505551272668	0.5210318775709046	-0.14137920465059495	0.5719824427426439	0.5180959022818448	0.12072483680954296	0.39418361735873814	0.5188201630306316	0.2786658751993814	0.30641723295737033	0.5545458993235601	0.2722300732988011	0.2788154547439716	0.5566668897128929	0.32732757407640894	0.2865035054584733	0.573263557537971	0.35793664659990404	0.20108434245804868	0.6033914481226662	-0.17418191495564	0.10794734424040871	0.702219959693138	0.06278578074572946	0.25971042444149856	0.6083030950703349	0.2386212667310317	0.32884511548951195	0.5381908034811499	0.24743453839377472	0.33859960489635216	0.5380658393475943	0.29326408861844605	0.331781880816162	0.562651310708725	0.33921922233064045
190	3.6538461538461537	0.4864399051158763	0.745332832760717	0.32907530986808603	0.504216958165198	0.878620540177375	0.676966320695014	0.5292588380932288	1.0672683176393414	1.0567910494987316	0.42636315261770985	0.8962995430099641	1.149463266123886	0.5006263454138208	0.8746807322850714	1.1475542445313176	0.5277265481428552	1.1830165422173597	1.1017000239955732	0.27717474009517507	0.8210453997646114	0.3105114618791889	0.3135064944223043	0.945366870488244	0.6597629640019316	0.3323967518090539	1.104595651434923	1.0103848697320525	0.26423926989843494	0.916237020540583	1.120166522963171	0.2310018289467277	1.0016292689068593	1.1164823571762534	0.371586590322591	1.1830626485054443	1.0649904058061934	0.35394422321265456	0.5638114607778949	-0.2236786896999092	0.33705474276218306	0.4138589655992965	-0.4418383025571486	0.31473460385177177	0.4045979109817263	-0.28718160576613	0.5090814023249642	0.5210953233930763	-0.14104870695135885	0.5681225491508032	0.5190327168297209	0.12395734652429982	0.401212893069285	0.5239268286127644	0.2874210822043043	0.29370171542201207	0.5499735535282011	0.2661521043280886	0.27941361914119117	0.5595663311235995	0.33799734376824037	0.2872047913247803	0.5733686677702342	0.3583682420336688	0.20107662801907733	0.6032619949553785	-0.17425100732242602	0.10161418221614944	0.6909825505409081	0.06351024305741713	0.23599322909696552	0.5995915449482669	0.24200735544344748	0.3200755936556538	0.5255793680318658	0.25551898565391407	0.337356711794618	0.5392936041506562	0.3008592441493363	0.3163904135893787	0.5681297932368333	0.34383536088555566
191	3.673076923076923	0.4851638385851875	0.7422515401964132	0.3249132701912639	0.5041529625270188	0.8786279520471935	0.677146909111806	0.5293283474021998	1.0847980635416576	1.0552825214596118	0.4264246769348542	0.8964234875595387	1.1495389832339666	0.500673541171628	0.8748338775816216	1.1476208986780656	0.5277896180644176	1.1831995071734003	1.1017176727645746	0.2798836303986586	0.8187084969864341	0.3099672437065887	0.3120458264642339	0.942341510011635	0.6552938816344046	0.3325495440090807	1.1046459657077363	1.0100039816553137	0.2568240759276625	0.9020760748723222	1.1161097502290047	0.2309567075146139	1.0015171675872698	1.1164409433006606	0.3719608571568406	1.1841019472984764	1.060932652364888	0.3539587095810496	0.5638209471852583	-0.2237556742672311	0.3371439811241124	0.4139566947410835	-0.44188325157656455	0.31473228421174937	0.40444192363484816	-0.2872579436706529	0.5099036523857794	0.5227816697231783	-0.13808981680911228	0.569601001940157	0.5322351521148788	0.12295715673616917	0.3979249449348682	0.5273099212251403	0.3062278596629696	0.29993766396964144	0.5872543335016208	0.29700269730831746	0.28944872496841784	0.592764154503065	0.35756526115384635	0.30845795124321845	0.5829573561213086	0.3942249147568367	0.20758681914683075	0.6143897969734163	-0.17621648062284345	0.0901934170483472	0.6775279122042845	0.06431141936612733	0.21893254277336688	0.5883086793000396	0.249267237871528	0.31161200000840467	0.5415297385446033	0.2588162917953806	0.32438138689613755	0.5467603178657688	0.31683403515304576	0.31716196585067974	0.5711668282319106	0.34826633251296163
